<svg width="500" height="500" viewBox="0 0 500 500" fill="none" xmlns="http://www.w3.org/2000/svg">
<path d="M353.081 377.117C353.081 374.5 351.359 372.158 348.88 371.332L308.94 361.208C303.5 359.83 299.643 354.871 299.643 349.224C299.643 341.166 307.218 335.312 315 337.24L333.662 341.993C340.617 342.475 346.814 337.034 346.814 329.802C346.814 325.326 344.335 321.331 340.548 319.196L126.729 265.063V327.805L345.713 383.315C349.431 383.866 353.081 380.974 353.081 377.117ZM271.272 341.579C271.272 336.345 275.473 332.144 280.706 332.144C285.94 332.144 290.14 336.345 290.14 341.579C290.14 346.814 285.94 351.015 280.706 351.015C275.473 351.015 271.272 346.814 271.272 341.579Z" fill="url(#paint0_linear_3975_7273)"/>
<path d="M133.822 156.383L173.969 165.749C179.478 167.058 183.403 171.879 183.472 177.526C183.61 185.584 176.172 191.576 168.322 189.786L149.591 185.447C142.636 185.102 136.576 190.612 136.714 197.912C136.852 203.284 140.433 207.899 145.597 209.414L361.757 262.307C368.093 263.891 374.222 259.07 374.222 252.528V210.516C374.222 205.902 371.054 201.838 366.509 200.736L138.987 144.95C136.37 144.33 133.822 144.812 131.687 145.983C130.379 147.154 129.484 148.807 129.484 150.735C129.484 153.353 131.274 155.625 133.753 156.452L133.822 156.383Z" fill="url(#paint1_linear_3975_7273)"/>
<path d="M220.177 157.554H123.907V95.0186H376.771V157.554H281.534V405.767H220.177V157.554Z" fill="#0C0F5E"/>
<path d="M374.155 266.165V203.354L126.456 264.03V326.772L374.155 266.165Z" fill="#0C0F5E"/>
<defs>
<linearGradient id="paint0_linear_3975_7273" x1="239.871" y1="385.037" x2="239.871" y2="265.063" gradientUnits="userSpaceOnUse">
<stop stop-color="#8968BF"/>
<stop offset="1" stop-color="#4444D6"/>
</linearGradient>
<linearGradient id="paint1_linear_3975_7273" x1="126.522" y1="203.629" x2="374.222" y2="203.629" gradientUnits="userSpaceOnUse">
<stop stop-color="#8468BF"/>
<stop offset="1" stop-color="#6060FF"/>
</linearGradient>
</defs>
</svg>
